<svg xmlns="http://www.w3.org/2000/svg" id="Layer_2" viewBox="0 0 90.04 50"><defs><style>.cls-1{fill:#d0d1d2}.cls-2{fill:#fff}</style></defs><g id="Layer_1-2"><path d="M1.12 0H5.4c2.76 0 4.63.12 5.61.35.97.23 1.71.62 2.22 1.15.51.53.82 1.13.95 1.78.13.65.19 1.94.19 3.86v7.09c0 1.82-.09 3.03-.28 3.65-.19.61-.51 1.09-.97 1.44-.46.35-1.03.59-1.71.73-.68.14-1.7.21-3.07.21H1.12V0Zm5.72 3.47v13.32c.82 0 1.33-.15 1.52-.46.19-.3.29-1.13.29-2.48V5.98c0-.92-.03-1.51-.1-1.76a.841.841 0 0 0-.43-.57c-.23-.12-.65-.18-1.28-.18ZM29.51 0v13.54c0 1.53-.05 2.61-.16 3.23-.11.62-.43 1.26-.97 1.91-.53.65-1.24 1.15-2.11 1.49-.87.34-1.91.51-3.09.51-1.31 0-2.47-.2-3.48-.6-1.01-.4-1.76-.92-2.26-1.56-.5-.64-.79-1.32-.88-2.03-.09-.71-.14-2.21-.14-4.5V0h5.72v15.19c0 .88.05 1.45.16 1.69.1.25.31.37.63.37.36 0 .6-.14.7-.41.1-.27.16-.91.16-1.92V0h5.72ZM44.5 0v20.25h-5.01l-2.98-9.21v9.21h-4.78V0h4.78l3.21 9.12V0h4.78ZM46.8 0h4.28c2.76 0 4.63.12 5.61.35.97.23 1.71.62 2.22 1.15.51.53.82 1.13.95 1.78.13.65.19 1.94.19 3.86v7.09c0 1.82-.09 3.03-.28 3.65-.19.61-.51 1.09-.97 1.44-.46.35-1.03.59-1.71.73-.68.14-1.7.21-3.07.21H46.8V0Zm5.72 3.47v13.32c.82 0 1.33-.15 1.52-.46.19-.3.29-1.13.29-2.48V5.98c0-.92-.03-1.51-.1-1.76a.841.841 0 0 0-.43-.57c-.23-.12-.65-.18-1.28-.18ZM62.18 0h9.54v4.05H67.9v3.84h3.57v3.85H67.9v4.45h4.2v4.05h-9.92V0ZM73.75 0h4.05c2.7 0 4.53.1 5.48.29.96.19 1.74.68 2.34 1.47.6.79.9 2.05.9 3.77 0 1.58-.21 2.64-.64 3.18-.43.54-1.26.87-2.51.98 1.13.26 1.89.6 2.28 1.04.39.43.63.83.73 1.19.09.36.14 1.36.14 3v5.34h-5.31v-6.73c0-1.08-.09-1.76-.28-2.01-.19-.26-.67-.39-1.46-.39v9.13h-5.72V0Zm5.72 3.47v4.5c.64 0 1.09-.08 1.35-.24.26-.16.39-.69.39-1.58V5.04c0-.64-.12-1.06-.37-1.26-.25-.2-.7-.3-1.37-.3ZM17.62 22.23v20.25h-4.99V28.81l-1.99 13.67H7.1L5 29.12v13.36H0V22.23h7.39c.22 1.22.45 2.65.68 4.31l.81 5.15 1.31-9.46h7.43ZM25.62 22.23v20.25h-5.71V22.23h5.71ZM27.92 22.23h9.67v4.05h-3.96v3.84h3.53v3.85h-3.53v8.51h-5.71V22.23ZM38.97 22.23h9.67v4.05h-3.96v3.84h3.53v3.85h-3.53v8.51h-5.71V22.23ZM55.74 22.23v16.2h3.47v4.05h-9.18V22.23h5.71ZM66.31 22.23v20.25H60.6V22.23h5.71ZM81.35 22.23v20.25h-5.01l-2.97-9.21v9.21H68.6V22.23h4.77l3.2 9.12v-9.12h4.77ZM86.67 38.52v1.81c0 .95-.12 1.73-.37 2.34-.24.61-.67 1.13-1.27 1.55-.6.43-1.28.71-2.04.85v-1.45c.54-.28.85-.66.92-1.14h-.92v-3.97h3.68Z" class="cls-2"/><path d="M89.88 24.55h-7.39v-2.29h7.39v2.29ZM89.88 30.58h-7.39v-2l3.36-1.19h-3.36v-1.91h7.39v1.91l-3.33 1.28h3.33v1.91ZM86.66 36.83v-2.29h1.28c.37 0 .61-.02.7-.07.09-.05.14-.16.14-.32 0-.19-.06-.31-.17-.36-.11-.05-.36-.08-.73-.08h-3.43c-.36 0-.59.03-.7.08-.11.05-.16.16-.16.34s.05.28.16.33c.11.05.37.08.77.08h.93v2.29h-.29c-.77 0-1.31-.06-1.63-.19-.32-.13-.6-.41-.84-.85s-.36-.98-.36-1.63.1-1.22.31-1.66c.2-.43.49-.72.85-.86s.9-.21 1.63-.21h2.16c.53 0 .93.02 1.2.07.27.04.52.17.77.39s.44.51.58.9c.14.38.21.82.21 1.32 0 .67-.11 1.23-.33 1.67-.22.44-.49.73-.82.86-.33.14-.84.21-1.53.21h-.7Z" class="cls-1"/><path d="M.18 49.96v-3.7h1.17c.35 0 .63.1.85.29.21.19.32.45.32.77a1 1 0 0 1-.16.57c-.11.17-.26.29-.44.36-.19.07-.46.11-.81.11H.72v1.6H.18Zm1.08-3.23H.71v1.15h.58c.22 0 .38-.05.5-.15.12-.1.17-.25.17-.43 0-.38-.23-.57-.7-.57ZM7.41 46.24h.37l1.66 3.71H8.9l-.49-1.09H6.83l-.46 1.09h-.54l1.59-3.71Zm.78 2.15-.6-1.34-.55 1.34h1.15ZM13.51 49.96v-3.7h1.17c.35 0 .63.1.85.29.21.19.32.45.32.77a1 1 0 0 1-.16.57c-.11.17-.26.29-.44.36-.19.07-.46.11-.81.11h-.39v1.6h-.53Zm1.08-3.23h-.55v1.15h.58c.22 0 .38-.05.5-.15.12-.1.17-.25.17-.43 0-.38-.23-.57-.7-.57ZM19.99 46.27h2.1v.47h-1.57v1.13h1.52v.47h-1.52v1.15h1.62v.47h-2.15v-3.69ZM26.41 49.96v-3.69h.93c.37 0 .67.09.89.28.22.19.33.44.33.75 0 .21-.05.4-.16.56-.11.16-.26.27-.46.35.12.08.23.18.35.32.11.13.27.37.48.7.13.21.23.37.31.47l.2.26h-.63l-.16-.24s-.02-.02-.03-.04l-.1-.15-.16-.27-.18-.29c-.11-.15-.21-.27-.3-.36a.972.972 0 0 0-.25-.19c-.07-.04-.2-.06-.37-.06h-.14v1.61h-.53Zm.69-3.24h-.16v1.17h.2c.27 0 .45-.02.55-.07.1-.05.18-.11.23-.21.06-.09.08-.2.08-.32s-.03-.22-.09-.32a.524.524 0 0 0-.26-.2c-.11-.04-.3-.06-.56-.06ZM41.75 49.1v.58c-.39.21-.84.32-1.35.32-.41 0-.76-.08-1.05-.25-.29-.17-.52-.39-.68-.68a1.84 1.84 0 0 1-.25-.94c0-.54.19-.99.58-1.36.38-.37.86-.55 1.42-.55.39 0 .82.1 1.3.3v.57c-.43-.25-.86-.37-1.27-.37s-.78.13-1.06.4-.42.6-.42 1 .14.74.41 1c.28.26.63.39 1.06.39s.89-.14 1.31-.41ZM47.91 46.21c.57 0 1.05.18 1.43.54.38.36.57.81.57 1.36s-.19.99-.58 1.35c-.38.36-.87.54-1.45.54s-1.02-.18-1.39-.54c-.37-.36-.56-.8-.56-1.34s.19-1.01.56-1.37c.37-.36.85-.54 1.42-.54Zm.02.51c-.42 0-.77.13-1.04.4-.27.26-.41.6-.41 1.01s.14.73.41.99c.27.26.62.4 1.03.4s.76-.14 1.03-.4c.28-.27.41-.61.41-1.01s-.14-.72-.41-.99c-.28-.27-.62-.4-1.02-.4ZM57.19 46.27h.49v3.69h-.53v-2.87l-1.14 1.43h-.1l-1.15-1.43v2.87h-.53v-3.69h.5l1.23 1.52 1.22-1.52ZM62.15 49.96v-3.7h1.17c.35 0 .63.1.84.29.21.19.32.45.32.77a1 1 0 0 1-.16.57c-.11.17-.26.29-.44.36-.19.07-.46.11-.81.11h-.39v1.6h-.53Zm1.08-3.23h-.55v1.15h.58c.22 0 .38-.05.5-.15.12-.1.17-.25.17-.43 0-.38-.23-.57-.7-.57ZM69.38 46.24h.37l1.66 3.71h-.54l-.49-1.09H68.8l-.46 1.09h-.54l1.59-3.71Zm.78 2.15-.6-1.34-.55 1.34h1.15ZM78.45 46.27h.5v3.69h-.46l-2.47-2.84v2.84h-.5v-3.69h.43l2.5 2.87v-2.87ZM85.66 46.27h.64l-1.37 1.74v1.95h-.54v-1.95l-1.37-1.74h.64l.99 1.27 1-1.27Z" class="cls-2"/></g></svg>